<?xml version="1.0" standalone="no"?>
<!DOCTYPE svg PUBLIC "-//W3C//DTD SVG 20010904//EN"
 "http://www.w3.org/TR/2001/REC-SVG-20010904/DTD/svg10.dtd">
<svg version="1.0" xmlns="http://www.w3.org/2000/svg"
 width="428.000000pt" height="428.000000pt" viewBox="0 0 428.000000 428.000000"
 preserveAspectRatio="xMidYMid meet">
<metadata>
Created by potrace 1.11, written by Peter Selinger 2001-2013
</metadata>
<g transform="translate(0.000000,428.000000) scale(0.100000,-0.100000)"
fill="#000000" stroke="none">
<path d="M2478 4158 c-228 -57 -377 -214 -418 -438 -12 -65 -14 -117 -6 -155
2 -11 7 -39 11 -62 8 -49 17 -44 -140 -72 -60 -11 -141 -27 -180 -35 -38 -8
-70 -14 -71 -13 0 1 -8 34 -17 72 -34 142 -113 261 -225 336 -46 31 -124 73
-132 71 -3 -1 -23 4 -45 10 -22 6 -74 12 -115 13 -267 7 -494 -174 -550 -440
-17 -78 -18 -117 -3 -190 7 -33 12 -65 13 -70 0 -6 -34 -19 -75 -28 -108 -25
-189 -70 -265 -147 -80 -79 -125 -162 -148 -272 -21 -95 -20 -151 2 -240 48
-190 192 -339 381 -394 69 -20 198 -25 261 -11 24 6 47 8 50 5 3 -3 22 -92 43
-198 l38 -192 -21 -7 c-12 -5 -39 -11 -61 -15 -22 -4 -76 -25 -121 -47 -183
-90 -293 -264 -299 -473 -4 -128 48 -278 124 -363 86 -93 182 -151 301 -180
84 -20 119 -21 209 -6 41 7 75 12 76 10 0 -1 8 -33 18 -72 35 -142 107 -251
212 -323 81 -56 120 -73 220 -95 154 -34 345 22 474 137 36 32 105 135 129
192 38 90 49 193 32 293 -7 40 -10 74 -7 77 2 3 92 22 198 43 l194 38 17 -71
c64 -257 261 -422 517 -430 97 -4 201 21 285 68 57 32 146 112 181 163 67 96
114 281 95 371 -4 21 -11 53 -14 72 l-6 36 62 13 c88 17 214 82 272 138 90 89
134 174 160 303 49 257 -105 522 -355 606 -109 37 -183 44 -278 25 -29 -6 -57
-11 -61 -11 -9 0 -17 33 -55 230 -14 74 -27 142 -29 151 -3 13 15 21 82 37
245 61 411 267 416 515 3 195 -82 359 -246 469 -37 25 -130 65 -169 73 -93 19
-149 21 -209 10 -92 -18 -87 -20 -94 27 -17 105 -74 221 -144 292 -43 45 -123
106 -136 106 -4 0 -25 9 -49 19 -101 46 -222 56 -329 29z m-194 -1786 c3 -9
19 -91 37 -182 17 -91 33 -173 34 -182 2 -9 -4 -19 -13 -22 -19 -5 -113 -24
-158 -32 -16 -2 -54 -10 -84 -16 -30 -6 -65 -12 -77 -13 -11 -2 -30 -6 -41 -9
-23 -8 -24 -5 -41 84 -19 95 -21 103 -36 185 -24 129 -24 132 -12 132 7 0 23
3 37 6 14 3 63 12 110 21 47 9 96 18 110 21 14 3 38 8 55 11 16 3 30 6 32 7
10 10 43 2 47 -11z"/>
<path d="M499 4041 c-1 -3 -1 -9 0 -13 0 -4 -7 -4 -16 -1 -11 4 -14 3 -9 -5 4
-7 2 -12 -3 -12 -6 0 -10 -6 -8 -12 1 -7 -3 -12 -9 -11 -6 1 -11 -4 -11 -12 0
-17 12 -11 54 29 37 35 40 43 18 43 -8 0 -16 -3 -16 -6z"/>
<path d="M3420 18 c0 -12 7 -18 23 -17 15 0 17 2 7 6 -8 3 -18 11 -22 17 -5 7
-8 4 -8 -6z"/>
</g>
</svg>
